<?xml version="1.0" encoding="utf-8"?>
<!-- Svg Vector Icons : http://www.onlinewebfonts.com/icon -->
<!DOCTYPE svg PUBLIC "-//W3C//DTD SVG 1.1//EN" "http://www.w3.org/Graphics/SVG/1.1/DTD/svg11.dtd">
<svg version="1.1" xmlns="http://www.w3.org/2000/svg" xmlns:xlink="http://www.w3.org/1999/xlink" x="0px" y="0px" viewBox="0 0 256 256" enable-background="new 0 0 256 256" xml:space="preserve">
<metadata> Svg Vector Icons : http://www.onlinewebfonts.com/icon </metadata>
<g><g><g><path fill="#3C82F6" d="M116.9,10.1c-28.6,3.4-51.5,14-71.1,33c-18.7,18.1-30.5,40.8-34.9,67.3c-1.3,7.6-1.3,27.6,0,35.2c6.5,39.2,29.9,71.1,64.9,88.4c17.7,8.8,35.5,12.6,56.1,12c17.2-0.5,31.6-4,46.9-11.4c24.5-11.9,43.1-30.2,55.2-54.5c7.7-15.5,11.4-30.5,12-48.1c0.6-20.6-3.2-38.4-12-56.1c-17.3-34.9-49-58.2-88.2-64.8C141.4,10.3,121,9.7,116.9,10.1z M145.1,21.4c23,3.9,42.6,13.9,59.1,30.4c13.9,13.9,23.2,30.1,28.1,48.8c2.7,10.5,3.4,15.7,3.4,27.4c0,11.4-0.5,16.3-3.2,26.8c-3.7,14.6-12,30.7-21.6,42.1l-3,3.5l-22-22l-22-22l0-3.5c-0.1-13.4-11.9-25.9-27.2-29l-3.1-0.6l-0.1-20.6l-0.1-20.6l1.5,0.3c5,1.1,10.9,4.4,14.1,8c2.5,2.8,4.2,6.7,4.6,10.8c0.3,3,0.6,3.6,1.9,4.8c2.8,2.5,7,1.4,8.2-2.2c0.7-2.2,0-7.6-1.6-11.5c-1.6-4-5.5-9.2-9.2-12.1c-4-3.2-10.8-6.5-15.6-7.5l-3.9-0.8v-3c0-3.8-1-6-3.1-7c-0.9-0.4-1.8-0.8-2.2-0.8c-0.3,0-1.3,0.3-2.2,0.8c-2.2,1-3.1,3.2-3.1,7v3l-3.9,0.8c-7.9,1.6-16.9,7.3-20.9,13.1l-1.9,2.7L75.8,68.3L55.7,48.2l1.1-1.2c1.4-1.5,10.9-8.6,14.9-11c13.6-8.5,30.1-13.9,47.4-15.8C123.8,19.8,139.5,20.5,145.1,21.4z M92.1,103.1c0.2,13.5,11.9,25.9,27.2,29l3.1,0.6l0.1,20.6l0.1,20.6l-1.5-0.3c-5-1.1-10.9-4.4-14.1-8c-2.4-2.7-4.1-6.6-4.6-10.3c-0.4-3.4-1-4.7-2.5-5.8c-2.7-1.9-7.3,0-7.9,3.2c-0.4,2.2,0.5,7.6,1.9,11.1c1.6,3.9,5.5,9.1,9.2,12.1c4,3.2,10.8,6.5,15.6,7.5l3.9,0.8v3c0,3.8,1,6,3.1,7c2,1,2.4,1,4.3,0c2.2-1,3.1-3.2,3.1-7.1c0-2.7,0.1-3.2,0.8-3.2c2.1,0,7.5-1.7,11.5-3.6c5.2-2.5,9.9-6.3,12.5-10.1l1.9-2.7l20.2,20.2c19.4,19.4,20.1,20.2,19.3,21c-0.4,0.5-2.6,2.3-4.7,4c-12.9,10.1-28.1,17.3-43.2,20.6c-9.7,2.2-12.8,2.5-23.6,2.5c-11.7,0-16.8-0.6-27.4-3.4c-18.7-4.9-34.9-14.2-48.8-28.1c-16.7-16.8-26.8-36.7-30.6-60.6c-1.1-6.6-1.2-23-0.3-29.4c0.9-6.4,2.8-14.5,4.7-20.4c4-12,12.8-27.5,20.9-36.4l1.7-1.8l21.9,21.9l22,22L92.1,103.1z M122.7,98.7v16.5l-9.4-9.4c-5.2-5.2-9.4-9.7-9.4-10.2c0-0.4,1-2.1,2.1-3.7c2.1-2.8,5.2-5.4,8.5-7.1c1.8-0.9,6.6-2.6,7.6-2.6C122.5,82.2,122.7,85.8,122.7,98.7z M152.1,160.4c0,1.5-4.5,6.8-7.6,8.9c-2.9,2-6.6,3.6-9.6,4.3l-1.6,0.3v-16.6v-16.5l9.4,9.4C147.8,155.3,152.1,159.9,152.1,160.4z"/></g></g></g>
</svg>